<?xml version="1.0" encoding="iso-8859-1"?>
<!-- Generator: Adobe Illustrator 19.0.0, SVG Export Plug-In . SVG Version: 6.00 Build 0)  -->
<svg version="1.1" id="Capa_1" xmlns="http://www.w3.org/2000/svg" xmlns:xlink="http://www.w3.org/1999/xlink" x="0px" y="0px"
	 viewBox="0 0 512 512" style="enable-background:new 0 0 512 512;" xml:space="preserve">
<g>
	<path style="fill:#3B3E43;" d="M193.169,330.502H81.864v-32.924c0-11.487,9.312-20.8,20.8-20.8h69.706
		c11.487,0,20.8,9.312,20.8,20.8V330.502z"/>
	<path style="fill:#3B3E43;" d="M442.779,330.502H331.474v-32.924c0-11.487,9.312-20.8,20.8-20.8h69.706
		c11.487,0,20.8,9.312,20.8,20.8L442.779,330.502L442.779,330.502z"/>
</g>
<path style="fill:#415050;" d="M472.106,497.993c0,7.736-6.271,14.007-14.007,14.007H53.901c-7.736,0-14.007-6.271-14.007-14.007
	V296.158h432.21v201.836H472.106z"/>
<path style="fill:#87AFB9;" d="M323.817,74.143h-17.303v-9.753c0-25.964-21.123-47.088-47.089-47.088
	c-25.964,0-47.088,21.123-47.088,47.088v9.753h-17.303v-9.753C195.034,28.886,223.92,0,259.425,0
	c35.506,0,64.392,28.886,64.392,64.391V74.143z"/>
<g>
	<circle style="fill:#703C22;" cx="259.641" cy="73.762" r="40.259"/>
	<path style="fill:#703C22;" d="M464.569,122.616c-3.513-9.256-13.863-13.913-23.12-10.399l-59.225,22.475l-73.596-5.789
		l-79.903,0.073c-0.083-0.01-0.164-0.029-0.248-0.038l-60.558-6.128l32.03-42.634c5.947-7.916,4.351-19.153-3.564-25.099
		c-7.915-5.947-19.152-4.351-25.099,3.564l-51.116,68.037c-3.885,5.171-4.683,12.034-2.089,17.959
		c2.595,5.925,8.181,9.992,14.615,10.643l75.712,7.662V295.7h102.887V165.075l72.126,5.673c0.469,0.037,0.937,0.056,1.406,0.056
		c2.168,0,4.325-0.394,6.361-1.166l62.983-23.902C463.426,142.222,468.082,131.871,464.569,122.616z"/>
</g>
<path style="fill:#B03128;" d="M195.745,85.77l1.443-1.92c-1.331,0.657-2.678,1.282-4.018,1.92H195.745z"/>
<g>
	<path style="fill:#DD3E3E;" d="M308.628,128.901l-30.789,0.029c0.366,9.804-8.736,18.132-18.243,18.132
		c-10.178,0-17.721-8.278-18.232-18.098l-12.641,0.011c-0.083-0.01-0.164-0.029-0.248-0.038l-53.666-5.431l-6.559,35.372
		l40.158,4.064v167.561h102.887V165.075l43.099,3.39l5.199-35.554L308.628,128.901z"/>
	<path style="fill:#DD3E3E;" d="M214.259,50.921c-2.354-1.358-4.953-2.115-7.687-2.115c-10.618,0-19.227,11.363-19.227,25.379
		c0,14.017,8.608,25.379,19.227,25.379c2.734,0,5.331-0.758,7.687-2.115V50.921z"/>
	<path style="fill:#DD3E3E;" d="M304.562,50.921c2.354-1.358,4.953-2.115,7.687-2.115c10.618,0,19.227,11.363,19.227,25.379
		c0,14.017-8.608,25.379-19.227,25.379c-2.734,0-5.332-0.758-7.687-2.115V50.921z"/>
</g>
<path style="fill:#87AFB9;" d="M493.831,330.502H18.169c-4.353,0-7.883-3.529-7.883-7.883v-19.227c0-4.353,3.529-7.883,7.883-7.883
	h475.662c4.353,0,7.883,3.529,7.883,7.883v19.227C501.715,326.974,498.185,330.502,493.831,330.502z"/>
<g>
</g>
<g>
</g>
<g>
</g>
<g>
</g>
<g>
</g>
<g>
</g>
<g>
</g>
<g>
</g>
<g>
</g>
<g>
</g>
<g>
</g>
<g>
</g>
<g>
</g>
<g>
</g>
<g>
</g>
</svg>
